# xmcd CD database file generated by OrangeCD 4.3
#
# Track frame offsets:
#	150
#	9617
#	20520
#	31555
#	42242
#	54075
#	62602
#	72852
#	84497
#	94422
#	107200
#	117592
#	129542
#	140502
#	151520
#	163265
#	173535
#	183650
#	193680
#	204980
#	215805
#
# Disc length: 3000 seconds
#
# Revision: 0
# Processed by: cddbd v1.4PL0 Copyright (c) Steve Scherf et al.
# Submitted via: OrangeCD 4.3
#
DISCID=200bb615
DTITLE=Various Artist - Specialty Legends Of Boogie Woogie
DYEAR=1992
DGENRE=Blues
TTITLE0=Camille Howard - X-Temporaneous Boogie
TTITLE1=The Nelson Alexander Trio - Rock That Voot
TTITLE2=Joe Lutcher and His Society Cats - Rockin' Boogie
TTITLE3=The Nelson Alexander Trio - Doin' The Boogie Woogie
TTITLE4=Joe Lutcher and His Society Cats - Society Boogie
TTITLE5=Camille Howard - Barcarolle Boogie
TTITLE6=Camille Howard - Instantaneous Boogie
TTITLE7=Smiling Smokey Lynn - State Street Boogie
TTITLE8=Camille Howard - Miraculous Boogie
TTITLE9=Roy Milton - Milton's Boogie
TTITLE10=Camille Howard - Ferocious Boogie
TTITLE11=Willard McDaniel - Unidentified Instrumental #1
TTITLE12=Joe Liggins - Boogie Woogie Lou
TTITLE13=Camille Howard - Fire-Ball Boogie
TTITLE14=Roy Milton - Boogie Woogie Barber Shop
TTITLE15=Willard McDaniel - 3 A.M. Boogie
TTITLE16=Camille Howard - Bangin' The Boogie
TTITLE17=Willard McDaniel - Ciribiribin Boogie
TTITLE18=Willard McDaniel - Unidentified Boogie #1
TTITLE19=Camille Howard - Million Dollar Boogie
TTITLE20=Jo Jo Jackson - Boogie In The Groove
EXTD=
EXTT0=
EXTT1=
EXTT2=
EXTT3=
EXTT4=
EXTT5=
EXTT6=
EXTT7=
EXTT8=
EXTT9=
EXTT10=
EXTT11=
EXTT12=
EXTT13=
EXTT14=
EXTT15=
EXTT16=
EXTT17=
EXTT18=
EXTT19=
EXTT20=
PLAYORDER=
